HIERARCHY
ROOT Hips
{
	OFFSET 0.00000 0.00000 0.00000
	CHANNELS 6 Xposition Yposition Zposition Zrotation Yrotation Xrotation 
	JOINT LHipJoint
	{
		OFFSET 0 0 0
		CHANNELS 3 Zrotation Yrotation Xrotation
		JOINT LeftUpLeg
		{
			OFFSET 1.57314 -1.85774 0.63783
			CHANNELS 3 Zrotation Yrotation Xrotation
			JOINT LeftLeg
			{
				OFFSET 2.57982 -7.08799 0.00000
				CHANNELS 3 Zrotation Yrotation Xrotation
				JOINT LeftFoot
				{
					OFFSET 2.63993 -7.25315 0.00000
					CHANNELS 3 Zrotation Yrotation Xrotation
					JOINT LeftToeBase
					{
						OFFSET 0.16864 -0.46332 2.12791
						CHANNELS 3 Zrotation Yrotation Xrotation
						End Site
						{
							OFFSET 0.00000 -0.00000 1.09718
						}
					}
				}
			}
		}
	}
	JOINT RHipJoint
	{
		OFFSET 0 0 0
		CHANNELS 3 Zrotation Yrotation Xrotation
		JOINT RightUpLeg
		{
			OFFSET -1.56006 -1.85774 0.63784
			CHANNELS 3 Zrotation Yrotation Xrotation
			JOINT RightLeg
			{
				OFFSET -2.54246 -6.98536 0.00000
				CHANNELS 3 Zrotation Yrotation Xrotation
				JOINT RightFoot
				{
					OFFSET -2.65791 -7.30256 0.00000
					CHANNELS 3 Zrotation Yrotation Xrotation
					JOINT RightToeBase
					{
						OFFSET -0.18435 -0.50650 2.16316
						CHANNELS 3 Zrotation Yrotation Xrotation
						End Site
						{
							OFFSET -0.00000 -0.00000 1.11780
						}
					}
				}
			}
		}
	}
	JOINT LowerBack
	{
		OFFSET 0 0 0
		CHANNELS 3 Zrotation Yrotation Xrotation
		JOINT Spine
		{
			OFFSET -0.00136 1.92812 -0.29638
			CHANNELS 3 Zrotation Yrotation Xrotation
			JOINT Spine1
			{
				OFFSET -0.00528 1.96223 -0.02928
				CHANNELS 3 Zrotation Yrotation Xrotation
				JOINT Neck
				{
					OFFSET 0 0 0
					CHANNELS 3 Zrotation Yrotation Xrotation
					JOINT Neck1
					{
						OFFSET -0.01015 1.75586 0.07797
						CHANNELS 3 Zrotation Yrotation Xrotation
						JOINT Head
						{
							OFFSET 0.05540 1.72452 0.04558
							CHANNELS 3 Zrotation Yrotation Xrotation
							End Site
							{
								OFFSET 0.02170 1.79958 0.00864
							}
						}
					}
				}
				JOINT LeftShoulder
				{
					OFFSET 0 0 0
					CHANNELS 3 Zrotation Yrotation Xrotation
					JOINT LeftArm
					{
						OFFSET 3.16292 1.29277 -0.65728
						CHANNELS 3 Zrotation Yrotation Xrotation
						JOINT LeftForeArm
						{
							OFFSET 5.52302 -0.00000 -0.00000
							CHANNELS 3 Zrotation Yrotation Xrotation
							JOINT LeftHand
							{
								OFFSET 3.58675 -0.00000 -0.00000
								CHANNELS 3 Zrotation Yrotation Xrotation
								JOINT LeftFingerBase
								{
									OFFSET 0 0 0
									CHANNELS 3 Zrotation Yrotation Xrotation
									JOINT LeftHandIndex1
									{
										OFFSET 0.53641 -0.00000 -0.00000
										CHANNELS 3 Zrotation Yrotation Xrotation
										End Site
										{
											OFFSET 0.43247 -0.00000 -0.00000
										}
									}
								}
								JOINT LThumb
								{
									OFFSET 0 0 0
									CHANNELS 3 Zrotation Yrotation Xrotation
									End Site
									{
										OFFSET 0.43907 -0.00000 0.43907
									}
								}
							}
						}
					}
				}
				JOINT RightShoulder
				{
					OFFSET 0 0 0
					CHANNELS 3 Zrotation Yrotation Xrotation
					JOINT RightArm
					{
						OFFSET -3.08296 1.43376 -0.52927
						CHANNELS 3 Zrotation Yrotation Xrotation
						JOINT RightForeArm
						{
							OFFSET -5.84780 -0.00000 0.00000
							CHANNELS 3 Zrotation Yrotation Xrotation
							JOINT RightHand
							{
								OFFSET -3.62717 -0.00000 -0.00000
								CHANNELS 3 Zrotation Yrotation Xrotation
								JOINT RightFingerBase
								{
									OFFSET 0 0 0
									CHANNELS 3 Zrotation Yrotation Xrotation
									JOINT RightHandIndex1
									{
										OFFSET -0.65052 -0.00000 -0.00000
										CHANNELS 3 Zrotation Yrotation Xrotation
										End Site
										{
											OFFSET -0.52446 -0.00000 -0.00000
										}
									}
								}
								JOINT RThumb
								{
									OFFSET 0 0 0
									CHANNELS 3 Zrotation Yrotation Xrotation
									End Site
									{
										OFFSET -0.53247 -0.00000 0.53247
									}
								}
							}
						}
					}
				}
			}
		}
	}
}
MOTION
Frames: 6
Frame Time: .0083333
-0.7552 17.4139 -27.769 0 0 0 0 0 0 -21 0 0 0 0 0 0 0 0 0 0 0 0 0 0 21 0 0 0 0 0 0 0 0 0 0 0 0 0 0 0 0 0 0 0 0 0 0 -16 0 0 21 0 0 11 0 0 0 -8 0 0 0 0 0 0 0 0 0 0 0 0 0 0 0 0 0 0 0 0 8 0 0 0 0 0 0 0 0 0 0 0 0 0 0 0 0 0
-0.7552 17.4139 -27.7690 -1.8475 1.1168 3.2466 0.0000 0.0000 0.0000 -20.3744 -9.9282 -25.6262 5.1605 13.5623 41.5117 0.3362 -7.9417 -10.9617 0.0768 -1.7872 -4.9179 0.0000 0.0000 0.0000 23.6445 -1.8206 -5.1745 -21.4786 -19.9475 94.3266 -1.4803 -18.5643 23.7390 -2.4196 -9.6902 27.9794 -0.2230 -1.0745 18.3965 -0.6877 -1.5171 2.0318 -0.2357 -0.7324 -8.1311 -0.8286 0.7831 -0.8374 0.1366 1.0460 -11.7332 0.1581 0.5493 -3.6488 0.0000 0.0000 0.0000 -81.0466 8.5134 37.2083 127.8413 -53.8299 -92.0924 -0.0000 0.0000 -33.7297 39.0619 7.9279 6.3870 -7.1250 0.0000 -0.0000 10.7176 39.9226 -1.3594 0.0000 0.0000 0.0000 73.5262 -12.1352 44.4993 -93.8227 59.9447 -63.3100 0.0000 -0.0000 -0.7329 -37.4844 27.2471 -19.3465 7.1250 -0.0000 -0.0000 -4.2273 2.9226 -4.4493
-0.7757 17.3696 -27.3253 -0.0891 1.6963 2.9676 0.0000 0.0000 0.0000 -22.5812 -10.0485 -23.5174 5.1583 13.5598 41.5020 0.4126 -8.1694 -11.9780 0.0489 -1.4267 -3.9236 0.0000 0.0000 0.0000 20.8884 -2.1287 -8.2183 -22.8324 -19.8066 98.3072 -1.3105 -17.5961 22.3583 -2.2839 -9.4339 27.1624 -2.0139 -1.0279 19.1712 -1.2778 -1.8725 2.5852 0.2444 -0.8571 -7.9162 -0.6590 0.6772 -2.3096 0.3344 0.9365 -11.7569 0.2014 0.4821 -3.3795 -0.0000 -0.0000 0.0000 -80.1999 4.3706 38.3256 127.0622 -54.1138 -91.4623 -0.0000 0.0000 -32.9167 39.5724 6.7525 5.5503 -7.1250 0.0000 -0.0000 11.0417 38.4905 -1.7962 -0.0000 -0.0000 0.0000 74.6948 -12.3133 42.1470 -91.1237 59.9952 -60.9731 0.0000 0.0000 0.2204 -37.7687 27.2290 -19.5200 7.1250 -0.0000 -0.0000 -4.3942 2.9958 -4.6312
-0.7789 17.3003 -26.8490 1.3947 0.7924 3.1569 0.0000 0.0000 0.0000 -24.4226 -9.2862 -22.1167 5.2164 13.6235 41.7496 0.5714 -8.0557 -13.7648 0.1417 -2.4262 -6.6851 0.0000 0.0000 0.0000 18.5671 -0.4627 -11.3647 -24.0612 -19.5999 101.9508 -1.1597 -16.4044 20.9658 -2.2150 -9.3002 26.7390 -3.7329 -0.5614 18.9191 -1.7755 -1.6381 2.7781 0.6182 -0.7097 -7.5397 -0.7380 0.5936 -2.6098 0.5230 0.8440 -12.1248 0.2791 0.4335 -3.4533 0.0000 0.0000 0.0000 -79.6479 1.1602 38.9459 126.4287 -54.3381 -90.9483 -0.0000 0.0000 -32.4738 38.5904 4.4074 3.5093 -7.1250 0.0000 -0.0000 9.9487 35.4650 -2.3600 0.0000 0.0000 0.0000 75.5550 -13.0454 40.1593 -88.2538 59.9885 -58.4878 0.0000 0.0000 1.2157 -38.0636 27.3693 -19.7988 7.1250 -0.0000 -0.0000 -4.5313 3.2525 -4.7958
-0.7908 17.2722 -26.3951 1.7325 0.4085 3.3546 0.0000 0.0000 0.0000 -24.9299 -8.6700 -20.7803 5.2583 13.6689 41.9270 0.7051 -8.1327 -15.1676 0.4073 -4.0971 -11.3500 0.0000 0.0000 0.0000 17.6388 0.6410 -14.8348 -25.0545 -19.3761 104.9274 -0.9912 -15.1618 19.3640 -2.1087 -9.0889 26.0737 -4.3742 -0.4195 19.0576 -1.8630 -1.6010 2.7081 0.8804 -0.6719 -7.6771 -0.9652 0.6779 -2.2851 0.7906 0.9821 -12.6005 0.4023 0.5022 -3.6867 0.0000 0.0000 0.0000 -79.3717 -1.5892 39.0042 126.1648 -54.4299 -90.7338 -0.0000 0.0000 -32.3068 37.1813 4.8410 3.6627 -7.1250 0.0000 -0.0000 8.8090 35.9293 -1.9831 0.0000 0.0000 0.0000 76.2536 -14.0945 38.4785 -85.6112 59.9271 -56.2002 0.0000 0.0000 2.1294 -39.5214 26.9933 -20.5279 7.1250 -0.0000 -0.0000 -5.4490 3.3239 -5.7814
-0.7899 17.2415 -25.9359 1.3664 0.1192 3.7770 0.0000 0.0000 0.0000 -24.6867 -8.0695 -19.6901 5.3028 13.7168 42.1148 0.8400 -8.1936 -16.4791 0.4991 -4.5293 -12.5707 0.0000 0.0000 0.0000 17.7974 2.0473 -18.3689 -25.8279 -19.1654 107.2707 -0.7677 -14.0166 17.2486 -1.6094 -8.0001 22.7143 -4.1808 -0.4627 18.8589 -1.7213 -1.6029 2.5323 0.9222 -0.6732 -7.7617 -1.1282 0.8749 -1.9011 0.8099 1.2461 -12.9558 0.4291 0.6393 -3.8907 -0.0000 -0.0000 0.0000 -79.4195 -4.2178 38.9194 126.0731 -54.4615 -90.6592 -0.0000 0.0000 -32.3528 36.1295 6.0755 4.4180 -7.1250 0.0000 -0.0000 8.0091 37.3791 -1.5139 -0.0000 -0.0000 0.0000 76.8121 -15.2853 37.0012 -83.3536 59.8324 -54.2473 0.0000 0.0000 2.7267 -40.8485 26.4015 -21.0306 7.1250 -0.0000 -0.0000 -6.3442 3.1149 -6.7200
